<?xml version="1.0" encoding="UTF-8" standalone="no"?>
<svg width="329px" height="66px" viewBox="0 0 329 66" version="1.1" xmlns="http://www.w3.org/2000/svg" xmlns:xlink="http://www.w3.org/1999/xlink" xmlns:sketch="http://www.bohemiancoding.com/sketch/ns">
    <!-- Generator: sketchtool 3.4 (356) - http://www.bohemiancoding.com/sketch -->
    <title>location-icon-lines@0.5x</title>
    <desc>Created with sketchtool.</desc>
    <defs></defs>
    <g id="clevermap" stroke="none" stroke-width="1" fill="none" fill-rule="evenodd" sketch:type="MSPage">
        <g id="clevermap-sidebar" sketch:type="MSArtboardGroup" transform="translate(-1856.000000, -668.000000)">
            <g id="sidebar" sketch:type="MSLayerGroup" transform="translate(1640.000000, 0.000000)">
                <g id="location-icon-lines" transform="translate(217.000000, 668.000000)" sketch:type="MSShapeGroup">
                    <g id="divider" transform="translate(0.000000, 30.000000)" stroke="#6A6D76" stroke-linecap="square" opacity="0.65">
                        <path d="M0.5,1.9 L130.5,1.9" id="Line" stroke-width="2"></path>
                        <path d="M58.5,2 L128.5,2" id="Line-Copy-2" stroke-width="4"></path>
                    </g>
                    <g id="divider-copy-2" transform="translate(196.000000, 30.000000)" stroke="#6A6D76" stroke-linecap="square" opacity="0.65">
                        <path d="M0.5,1.9 L130.5,1.9" id="Line" stroke-width="2"></path>
                        <path d="M0.5,2 L70.5,2" id="Line-Copy-2" stroke-width="4"></path>
                    </g>
                    <g id="location-+-Oval-14-Copy" transform="translate(130.000000, 0.000000)">
                        <path d="M32.4043048,17 C26.1809191,17 21.140625,22.0402941 21.140625,28.2636798 C21.140625,37.744619 32.4043048,50.1913903 32.4043048,50.1913903 C32.4043048,50.1913903 43.6679847,37.744619 43.6679847,28.2636798 C43.6679847,22.0402941 38.6276905,17 32.4043048,17 L32.4043048,17 Z M22.3237166,28.2636798 C22.3237166,22.6885635 26.8453952,18.1830916 32.4043048,18.1830916 C37.9632144,18.1830916 42.4848931,22.6885635 42.4848931,28.2636798 C42.4848931,36.5615274 32.4043048,48.4086497 32.4043048,48.4086497 C32.4043048,48.4086497 22.3237166,36.5615274 22.3237166,28.2636798 L22.3237166,28.2636798 Z M32.4043048,22.9316645 C29.4546793,22.9316645 27.0722895,25.3140543 27.0722895,28.2636798 C27.0722895,31.2133053 29.4546793,33.5956952 32.4043048,33.5956952 C35.3539303,33.5956952 37.7363202,31.2133053 37.7363202,28.2636798 C37.7363202,25.3140543 35.3539303,22.9316645 32.4043048,22.9316645 L32.4043048,22.9316645 Z M32.4043048,32.4126036 C30.1191554,32.4126036 28.255381,30.5488293 28.255381,28.2636798 C28.255381,25.9623237 30.1191554,24.114756 32.4043048,24.114756 C34.6894543,24.114756 36.5532286,25.9623237 36.5532286,28.2636798 C36.5532286,30.5488293 34.6894543,32.4126036 32.4043048,32.4126036 L32.4043048,32.4126036 Z" id="location" fill="#6A6D76"></path>
                        <circle id="Oval-14" stroke="#6A6D76" stroke-width="2" cx="33" cy="33" r="33"></circle>
                    </g>
                </g>
            </g>
        </g>
    </g>
</svg>